<svg xmlns="http://www.w3.org/2000/svg" height="281" preserveAspectRatio="none" style="width:239px;height:281px" width="239"><defs><filter height="300%" id="a" width="300%" x="-1" y="-1"><feGaussianBlur result="blurOut" stdDeviation="2"/><feColorMatrix in="blurOut" result="blurOut2" values="0 0 0 0 0 0 0 0 0 0 0 0 0 0 0 0 0 0 .4 0"/><feOffset dx="4" dy="4" in="blurOut2" result="blurOut3"/><feBlend in="SourceGraphic" in2="blurOut3"/></filter></defs><path fill="#FEFECE" filter="url(#a)" stroke="#a80036" stroke-width="1.5" d="M73 8h103v48H73z"/><circle cx="88" cy="24" fill="#ADD1B2" stroke="#a80036" r="11"/><path d="M90.344 19.672l.172.078c.218-.313.421-.406.718-.406s.579.14.735.406c.094.156.11.281.11.719v1.422c0 .422-.032.609-.141.765a.92.92 0 01-.704.36.895.895 0 01-.593-.25c-.141-.125-.172-.25-.235-.657-.094-.406-.265-.625-.75-.906A3.655 3.655 0 0088 20.797c-1.734 0-2.984 1.312-2.984 3.094v1.093c0 1.703 1.296 2.797 3.343 2.797.766 0 1.454-.125 1.875-.39.188-.094.188-.094.641-.578a.831.831 0 01.61-.266c.468 0 .859.39.859.844 0 .39-.328.843-.906 1.25-.75.547-1.907.843-3.126.843-2.89 0-5-1.89-5-4.468V23.89c0-2.72 2-4.797 4.626-4.797.874 0 1.468.14 2.406.578z"/><text font-family="sans-serif" font-size="12" lengthAdjust="spacingAndGlyphs" textLength="71" x="102" y="28.154">JsrtRuntime</text><path stroke="#a80036" stroke-width="1.5" d="M74 40h101M74 48h101"/><path fill="#FEFECE" filter="url(#a)" stroke="#a80036" stroke-width="1.5" d="M11.5 116h100v48h-100z"/><circle cx="26.5" cy="132" fill="#ADD1B2" stroke="#a80036" r="11"/><path d="M28.844 127.672l.172.078c.218-.313.422-.406.718-.406.297 0 .578.14.735.406.093.156.11.281.11.719v1.422c0 .422-.032.609-.142.765a.92.92 0 01-.703.36.895.895 0 01-.593-.25c-.141-.125-.172-.25-.235-.657-.093-.406-.265-.625-.75-.906a3.655 3.655 0 00-1.656-.406c-1.734 0-2.984 1.312-2.984 3.094v1.093c0 1.703 1.297 2.797 3.343 2.797.766 0 1.453-.125 1.875-.39.188-.094.188-.094.641-.578a.831.831 0 01.61-.266c.468 0 .859.39.859.844 0 .39-.328.843-.907 1.25-.75.547-1.906.843-3.125.843-2.89 0-5-1.89-5-4.468v-1.125c0-2.72 2-4.797 4.625-4.797.875 0 1.47.14 2.407.578z"/><text font-family="sans-serif" font-size="12" lengthAdjust="spacingAndGlyphs" textLength="68" x="40.5" y="136.154">JsrtContext</text><path stroke="#a80036" stroke-width="1.5" d="M12.5 148h98M12.5 156h98"/><path fill="#FEFECE" filter="url(#a)" stroke="#a80036" stroke-width="1.5" d="M146.5 116h84v48h-84z"/><circle cx="161.5" cy="132" fill="#ADD1B2" stroke="#a80036" r="11"/><path d="M163.844 127.672l.172.078c.218-.313.422-.406.718-.406.297 0 .578.14.735.406.094.156.11.281.11.719v1.422c0 .422-.032.609-.142.765a.92.92 0 01-.703.36.895.895 0 01-.593-.25c-.141-.125-.172-.25-.235-.657-.094-.406-.265-.625-.75-.906a3.655 3.655 0 00-1.656-.406c-1.734 0-2.984 1.312-2.984 3.094v1.093c0 1.703 1.297 2.797 3.343 2.797.766 0 1.453-.125 1.875-.39.188-.094.188-.094.641-.578a.831.831 0 01.61-.266c.468 0 .859.39.859.844 0 .39-.328.843-.906 1.25-.75.547-1.907.843-3.125.843-2.891 0-5-1.89-5-4.468v-1.125c0-2.72 2-4.797 4.625-4.797.875 0 1.468.14 2.406.578z"/><text font-family="sans-serif" font-size="12" lengthAdjust="spacingAndGlyphs" textLength="52" x="175.5" y="136.154">Recycler</text><path stroke="#a80036" stroke-width="1.5" d="M147.5 148h82M147.5 156h82"/><path fill="#FEFECE" filter="url(#a)" stroke="#a80036" stroke-width="1.5" d="M6 224h111v48H6z"/><circle cx="21" cy="240" fill="#ADD1B2" stroke="#a80036" r="11"/><path d="M23.344 235.672l.172.078c.218-.313.422-.406.718-.406.297 0 .578.14.735.406.093.156.11.281.11.719v1.422c0 .422-.032.609-.142.765a.92.92 0 01-.703.36.895.895 0 01-.593-.25c-.141-.125-.172-.25-.235-.657-.093-.406-.265-.625-.75-.906a3.655 3.655 0 00-1.656-.406c-1.734 0-2.984 1.312-2.984 3.094v1.093c0 1.703 1.297 2.797 3.343 2.797.766 0 1.453-.125 1.875-.39.188-.094.188-.094.641-.578a.831.831 0 01.61-.266c.468 0 .859.39.859.844 0 .39-.328.843-.907 1.25-.75.547-1.906.843-3.125.843-2.89 0-5-1.89-5-4.468v-1.125c0-2.72 2-4.797 4.625-4.797.875 0 1.47.14 2.407.578z"/><text font-family="sans-serif" font-size="12" lengthAdjust="spacingAndGlyphs" textLength="79" x="35" y="244.154">GlobalObject</text><path stroke="#a80036" stroke-width="1.5" d="M7 256h109M7 264h109"/><path d="M104.013 67.47L75.36 115.678" fill="none" stroke="#a80036"/><path fill="#A80036" stroke="#a80036" d="M110.83 56l-6.504 3.114.373 7.202 6.504-3.115L110.83 56z"/><text font-family="sans-serif" font-size="13" lengthAdjust="spacingAndGlyphs" textLength="8" x="98.302" y="76.156">1</text><text font-family="sans-serif" font-size="13" lengthAdjust="spacingAndGlyphs" textLength="8" x="69.764" y="105.004">n</text><path d="M145.312 67.47l29.107 48.208" fill="none" stroke="#a80036"/><path fill="#A80036" stroke="#a80036" d="M138.387 56l-.323 7.204 6.525 3.069.323-7.204L138.387 56z"/><text font-family="sans-serif" font-size="13" lengthAdjust="spacingAndGlyphs" textLength="8" x="132.921" y="76.156">1</text><text font-family="sans-serif" font-size="13" lengthAdjust="spacingAndGlyphs" textLength="8" x="162.012" y="105.004">1</text><path d="M61.5 177.338v46.34" fill="none" stroke="#a80036"/><path fill="#A80036" stroke="#a80036" d="M61.5 164l-4 6 4 6 4-6-4-6z"/><text font-family="sans-serif" font-size="13" lengthAdjust="spacingAndGlyphs" textLength="8" x="52.475" y="184.156">1</text><text font-family="sans-serif" font-size="13" lengthAdjust="spacingAndGlyphs" textLength="8" x="52.525" y="213.005">1</text></svg>