<?xml version="1.0" encoding="UTF-8" standalone="no"?><svg xmlns="http://www.w3.org/2000/svg" xmlns:xlink="http://www.w3.org/1999/xlink" contentScriptType="application/ecmascript" contentStyleType="text/css" height="281px" preserveAspectRatio="none" style="width:239px;height:281px;" version="1.1" viewBox="0 0 239 281" width="239px" zoomAndPan="magnify"><defs><filter height="300%" id="f58aq6k" width="300%" x="-1" y="-1"><feGaussianBlur result="blurOut" stdDeviation="2.0"/><feColorMatrix in="blurOut" result="blurOut2" type="matrix" values="0 0 0 0 0 0 0 0 0 0 0 0 0 0 0 0 0 0 .4 0"/><feOffset dx="4.0" dy="4.0" in="blurOut2" result="blurOut3"/><feBlend in="SourceGraphic" in2="blurOut3" mode="normal"/></filter></defs><g><!--class JsrtRuntime--><rect fill="#FEFECE" filter="url(#f58aq6k)" height="48" style="stroke: #A80036; stroke-width: 1.5;" width="103" x="73" y="8"/><ellipse cx="88" cy="24" fill="#ADD1B2" rx="11" ry="11" style="stroke: #A80036; stroke-width: 1.0;"/><path d="M90.3438,19.6719 L90.5156,19.75 C90.7344,19.4375 90.9375,19.3438 91.2344,19.3438 C91.5313,19.3438 91.8125,19.4844 91.9688,19.75 C92.0625,19.9063 92.0781,20.0313 92.0781,20.4688 L92.0781,21.8906 C92.0781,22.3125 92.0469,22.5 91.9375,22.6563 C91.7656,22.875 91.5,23.0156 91.2344,23.0156 C91.0156,23.0156 90.7813,22.9063 90.6406,22.7656 C90.5,22.6406 90.4688,22.5156 90.4063,22.1094 C90.3125,21.7031 90.1406,21.4844 89.6563,21.2031 C89.1875,20.9531 88.5781,20.7969 88,20.7969 C86.2656,20.7969 85.0156,22.1094 85.0156,23.8906 L85.0156,24.9844 C85.0156,26.6875 86.3125,27.7813 88.3594,27.7813 C89.125,27.7813 89.8125,27.6563 90.2344,27.3906 C90.4219,27.2969 90.4219,27.2969 90.875,26.8125 C91.0625,26.625 91.2656,26.5469 91.4844,26.5469 C91.9531,26.5469 92.3438,26.9375 92.3438,27.3906 C92.3438,27.7813 92.0156,28.2344 91.4375,28.6406 C90.6875,29.1875 89.5313,29.4844 88.3125,29.4844 C85.4219,29.4844 83.3125,27.5938 83.3125,25.0156 L83.3125,23.8906 C83.3125,21.1719 85.3125,19.0938 87.9375,19.0938 C88.8125,19.0938 89.4063,19.2344 90.3438,19.6719 Z "/><text fill="#000000" font-family="sans-serif" font-size="12" lengthAdjust="spacingAndGlyphs" textLength="71" x="102" y="28.1543">JsrtRuntime</text><line style="stroke: #A80036; stroke-width: 1.5;" x1="74" x2="175" y1="40" y2="40"/><line style="stroke: #A80036; stroke-width: 1.5;" x1="74" x2="175" y1="48" y2="48"/><!--class JsrtContext--><rect fill="#FEFECE" filter="url(#f58aq6k)" height="48" style="stroke: #A80036; stroke-width: 1.5;" width="100" x="11.5" y="116"/><ellipse cx="26.5" cy="132" fill="#ADD1B2" rx="11" ry="11" style="stroke: #A80036; stroke-width: 1.0;"/><path d="M28.8438,127.6719 L29.0156,127.75 C29.2344,127.4375 29.4375,127.3438 29.7344,127.3438 C30.0313,127.3438 30.3125,127.4844 30.4688,127.75 C30.5625,127.9063 30.5781,128.0313 30.5781,128.4688 L30.5781,129.8906 C30.5781,130.3125 30.5469,130.5 30.4375,130.6563 C30.2656,130.875 30,131.0156 29.7344,131.0156 C29.5156,131.0156 29.2813,130.9063 29.1406,130.7656 C29,130.6406 28.9688,130.5156 28.9063,130.1094 C28.8125,129.7031 28.6406,129.4844 28.1563,129.2031 C27.6875,128.9531 27.0781,128.7969 26.5,128.7969 C24.7656,128.7969 23.5156,130.1094 23.5156,131.8906 L23.5156,132.9844 C23.5156,134.6875 24.8125,135.7813 26.8594,135.7813 C27.625,135.7813 28.3125,135.6563 28.7344,135.3906 C28.9219,135.2969 28.9219,135.2969 29.375,134.8125 C29.5625,134.625 29.7656,134.5469 29.9844,134.5469 C30.4531,134.5469 30.8438,134.9375 30.8438,135.3906 C30.8438,135.7813 30.5156,136.2344 29.9375,136.6406 C29.1875,137.1875 28.0313,137.4844 26.8125,137.4844 C23.9219,137.4844 21.8125,135.5938 21.8125,133.0156 L21.8125,131.8906 C21.8125,129.1719 23.8125,127.0938 26.4375,127.0938 C27.3125,127.0938 27.9063,127.2344 28.8438,127.6719 Z "/><text fill="#000000" font-family="sans-serif" font-size="12" lengthAdjust="spacingAndGlyphs" textLength="68" x="40.5" y="136.1543">JsrtContext</text><line style="stroke: #A80036; stroke-width: 1.5;" x1="12.5" x2="110.5" y1="148" y2="148"/><line style="stroke: #A80036; stroke-width: 1.5;" x1="12.5" x2="110.5" y1="156" y2="156"/><!--class Recycler--><rect fill="#FEFECE" filter="url(#f58aq6k)" height="48" style="stroke: #A80036; stroke-width: 1.5;" width="84" x="146.5" y="116"/><ellipse cx="161.5" cy="132" fill="#ADD1B2" rx="11" ry="11" style="stroke: #A80036; stroke-width: 1.0;"/><path d="M163.8438,127.6719 L164.0156,127.75 C164.2344,127.4375 164.4375,127.3438 164.7344,127.3438 C165.0313,127.3438 165.3125,127.4844 165.4688,127.75 C165.5625,127.9063 165.5781,128.0313 165.5781,128.4688 L165.5781,129.8906 C165.5781,130.3125 165.5469,130.5 165.4375,130.6563 C165.2656,130.875 165,131.0156 164.7344,131.0156 C164.5156,131.0156 164.2813,130.9063 164.1406,130.7656 C164,130.6406 163.9688,130.5156 163.9063,130.1094 C163.8125,129.7031 163.6406,129.4844 163.1563,129.2031 C162.6875,128.9531 162.0781,128.7969 161.5,128.7969 C159.7656,128.7969 158.5156,130.1094 158.5156,131.8906 L158.5156,132.9844 C158.5156,134.6875 159.8125,135.7813 161.8594,135.7813 C162.625,135.7813 163.3125,135.6563 163.7344,135.3906 C163.9219,135.2969 163.9219,135.2969 164.375,134.8125 C164.5625,134.625 164.7656,134.5469 164.9844,134.5469 C165.4531,134.5469 165.8438,134.9375 165.8438,135.3906 C165.8438,135.7813 165.5156,136.2344 164.9375,136.6406 C164.1875,137.1875 163.0313,137.4844 161.8125,137.4844 C158.9219,137.4844 156.8125,135.5938 156.8125,133.0156 L156.8125,131.8906 C156.8125,129.1719 158.8125,127.0938 161.4375,127.0938 C162.3125,127.0938 162.9063,127.2344 163.8438,127.6719 Z "/><text fill="#000000" font-family="sans-serif" font-size="12" lengthAdjust="spacingAndGlyphs" textLength="52" x="175.5" y="136.1543">Recycler</text><line style="stroke: #A80036; stroke-width: 1.5;" x1="147.5" x2="229.5" y1="148" y2="148"/><line style="stroke: #A80036; stroke-width: 1.5;" x1="147.5" x2="229.5" y1="156" y2="156"/><!--class GlobalObject--><rect fill="#FEFECE" filter="url(#f58aq6k)" height="48" style="stroke: #A80036; stroke-width: 1.5;" width="111" x="6" y="224"/><ellipse cx="21" cy="240" fill="#ADD1B2" rx="11" ry="11" style="stroke: #A80036; stroke-width: 1.0;"/><path d="M23.3438,235.6719 L23.5156,235.75 C23.7344,235.4375 23.9375,235.3438 24.2344,235.3438 C24.5313,235.3438 24.8125,235.4844 24.9688,235.75 C25.0625,235.9063 25.0781,236.0313 25.0781,236.4688 L25.0781,237.8906 C25.0781,238.3125 25.0469,238.5 24.9375,238.6563 C24.7656,238.875 24.5,239.0156 24.2344,239.0156 C24.0156,239.0156 23.7813,238.9063 23.6406,238.7656 C23.5,238.6406 23.4688,238.5156 23.4063,238.1094 C23.3125,237.7031 23.1406,237.4844 22.6563,237.2031 C22.1875,236.9531 21.5781,236.7969 21,236.7969 C19.2656,236.7969 18.0156,238.1094 18.0156,239.8906 L18.0156,240.9844 C18.0156,242.6875 19.3125,243.7813 21.3594,243.7813 C22.125,243.7813 22.8125,243.6563 23.2344,243.3906 C23.4219,243.2969 23.4219,243.2969 23.875,242.8125 C24.0625,242.625 24.2656,242.5469 24.4844,242.5469 C24.9531,242.5469 25.3438,242.9375 25.3438,243.3906 C25.3438,243.7813 25.0156,244.2344 24.4375,244.6406 C23.6875,245.1875 22.5313,245.4844 21.3125,245.4844 C18.4219,245.4844 16.3125,243.5938 16.3125,241.0156 L16.3125,239.8906 C16.3125,237.1719 18.3125,235.0938 20.9375,235.0938 C21.8125,235.0938 22.4063,235.2344 23.3438,235.6719 Z "/><text fill="#000000" font-family="sans-serif" font-size="12" lengthAdjust="spacingAndGlyphs" textLength="79" x="35" y="244.1543">GlobalObject</text><line style="stroke: #A80036; stroke-width: 1.5;" x1="7" x2="116" y1="256" y2="256"/><line style="stroke: #A80036; stroke-width: 1.5;" x1="7" x2="116" y1="264" y2="264"/><path d="M104.0129,67.47 C94.6326,83.253 83.7617,101.544 75.3609,115.678 " fill="none" style="stroke: #A80036; stroke-width: 1.0;"/><polygon fill="#A80036" points="110.83,56,104.326,59.1142,104.6991,66.3156,111.2031,63.2014,110.83,56" style="stroke: #A80036; stroke-width: 1.0;"/><text fill="#000000" font-family="sans-serif" font-size="13" lengthAdjust="spacingAndGlyphs" textLength="8" x="98.3019" y="76.1558">1</text><text fill="#000000" font-family="sans-serif" font-size="13" lengthAdjust="spacingAndGlyphs" textLength="8" x="69.7645" y="105.0045">n</text><path d="M145.312,67.47 C154.841,83.253 165.885,101.544 174.419,115.678 " fill="none" style="stroke: #A80036; stroke-width: 1.0;"/><polygon fill="#A80036" points="138.387,56,138.0637,63.2039,144.589,66.273,144.9124,59.0692,138.387,56" style="stroke: #A80036; stroke-width: 1.0;"/><text fill="#000000" font-family="sans-serif" font-size="13" lengthAdjust="spacingAndGlyphs" textLength="8" x="132.9205" y="76.1558">1</text><text fill="#000000" font-family="sans-serif" font-size="13" lengthAdjust="spacingAndGlyphs" textLength="8" x="162.0118" y="105.0045">1</text><path d="M61.5,177.3383 C61.5,192.6813 61.5,210.098 61.5,223.6784 " fill="none" style="stroke: #A80036; stroke-width: 1.0;"/><polygon fill="#A80036" points="61.5,164,57.5,170,61.5,176,65.5,170,61.5,164" style="stroke: #A80036; stroke-width: 1.0;"/><text fill="#000000" font-family="sans-serif" font-size="13" lengthAdjust="spacingAndGlyphs" textLength="8" x="52.475" y="184.1558">1</text><text fill="#000000" font-family="sans-serif" font-size="13" lengthAdjust="spacingAndGlyphs" textLength="8" x="52.525" y="213.005">1</text></g></svg>