<svg xmlns="http://www.w3.org/2000/svg" height="594" preserveAspectRatio="none" style="width:760px;height:594px" width="760"><defs><filter height="300%" id="a" width="300%" x="-1" y="-1"><feGaussianBlur result="blurOut" stdDeviation="2"/><feColorMatrix in="blurOut" result="blurOut2" values="0 0 0 0 0 0 0 0 0 0 0 0 0 0 0 0 0 0 .4 0"/><feOffset dx="4" dy="4" in="blurOut2" result="blurOut3"/><feBlend in="SourceGraphic" in2="blurOut3"/></filter></defs><path fill="#FEFECE" filter="url(#a)" stroke="#a80036" stroke-width="1.5" d="M85.5 139.5h145v60.805h-145z"/><circle cx="119.4" cy="155.5" fill="#ADD1B2" stroke="#a80036" r="11"/><path d="M121.744 151.172l.172.078c.218-.313.422-.406.718-.406.297 0 .579.14.735.406.094.156.11.281.11.719v1.422c0 .422-.032.609-.141.765a.92.92 0 01-.704.36.895.895 0 01-.593-.25c-.141-.125-.172-.25-.235-.657-.093-.406-.265-.625-.75-.906a3.655 3.655 0 00-1.656-.406c-1.734 0-2.984 1.312-2.984 3.094v1.093c0 1.703 1.297 2.797 3.343 2.797.766 0 1.454-.125 1.875-.39.188-.094.188-.094.641-.578a.831.831 0 01.61-.266c.468 0 .859.39.859.844 0 .39-.328.843-.906 1.25-.75.547-1.907.843-3.125.843-2.891 0-5-1.89-5-4.468v-1.125c0-2.72 2-4.797 4.625-4.797.875 0 1.468.14 2.406.578z"/><text font-family="sans-serif" font-size="12" lengthAdjust="spacingAndGlyphs" textLength="71" x="137.6" y="159.654">JsrtRuntime</text><path stroke="#a80036" stroke-width="1.5" d="M86.5 171.5h143"/><text font-family="sans-serif" font-size="11" lengthAdjust="spacingAndGlyphs" textLength="133" x="91.5" y="185.71">JsrtContext* contextList</text><path stroke="#a80036" stroke-width="1.5" d="M86.5 192.305h143"/><path fill="#FEFECE" filter="url(#a)" stroke="#a80036" stroke-width="1.5" d="M6 274.5h228v60.805H6z"/><circle cx="81.75" cy="290.5" fill="#ADD1B2" stroke="#a80036" r="11"/><path d="M84.094 286.172l.172.078c.218-.313.421-.406.718-.406s.579.14.735.406c.094.156.11.281.11.719v1.422c0 .421-.032.609-.141.765a.92.92 0 01-.704.36.895.895 0 01-.593-.25c-.141-.125-.172-.25-.235-.657-.094-.406-.265-.625-.75-.906a3.655 3.655 0 00-1.656-.406c-1.734 0-2.984 1.312-2.984 3.094v1.093c0 1.704 1.296 2.797 3.343 2.797.766 0 1.454-.125 1.875-.39.188-.094.188-.094.641-.579a.831.831 0 01.61-.265c.468 0 .859.39.859.844 0 .39-.328.843-.906 1.25-.75.546-1.907.843-3.126.843-2.89 0-5-1.89-5-4.468v-1.125c0-2.72 2-4.797 4.626-4.797.874 0 1.468.14 2.406.578z"/><text font-family="sans-serif" font-size="12" lengthAdjust="spacingAndGlyphs" textLength="68" x="102.25" y="294.654">JsrtContext</text><path stroke="#a80036" stroke-width="1.5" d="M7 306.5h226"/><text font-family="sans-serif" font-size="11" lengthAdjust="spacingAndGlyphs" textLength="216" x="12" y="320.71">Js::JavascriptLibrary* javascriptLibrary</text><path stroke="#a80036" stroke-width="1.5" d="M7 327.305h226"/><path fill="#FEFECE" filter="url(#a)" stroke="#a80036" stroke-width="1.5" d="M218 8h184v48H218z"/><circle cx="233" cy="24" fill="#ADD1B2" stroke="#a80036" r="11"/><path d="M235.344 19.672l.172.078c.218-.313.422-.406.718-.406.297 0 .578.14.735.406.094.156.11.281.11.719v1.422c0 .422-.032.609-.142.765a.92.92 0 01-.703.36.895.895 0 01-.593-.25c-.141-.125-.172-.25-.235-.657-.094-.406-.265-.625-.75-.906a3.655 3.655 0 00-1.656-.406c-1.734 0-2.984 1.312-2.984 3.094v1.093c0 1.703 1.297 2.797 3.343 2.797.766 0 1.453-.125 1.875-.39.188-.094.188-.094.641-.578a.831.831 0 01.61-.266c.468 0 .859.39.859.844 0 .39-.328.843-.906 1.25-.75.547-1.907.843-3.125.843-2.891 0-5-1.89-5-4.468V23.89c0-2.72 2-4.797 4.625-4.797.875 0 1.468.14 2.406.578z"/><text font-family="sans-serif" font-size="12" lengthAdjust="spacingAndGlyphs" textLength="152" x="247" y="28.154">ThreadContextGlobalList</text><path stroke="#a80036" stroke-width="1.5" d="M219 40h182M219 48h182"/><path fill="#FEFECE" filter="url(#a)" stroke="#a80036" stroke-width="1.5" d="M312.5 133h211v73.609h-211z"/><circle cx="367.75" cy="149" fill="#ADD1B2" stroke="#a80036" r="11"/><path d="M370.094 144.672l.172.078c.218-.313.421-.406.718-.406s.579.14.735.406c.094.156.11.281.11.719v1.422c0 .422-.032.609-.142.765a.92.92 0 01-.703.36.895.895 0 01-.593-.25c-.141-.125-.172-.25-.235-.657-.094-.406-.265-.625-.75-.906a3.655 3.655 0 00-1.656-.406c-1.734 0-2.984 1.312-2.984 3.094v1.093c0 1.703 1.296 2.797 3.343 2.797.766 0 1.454-.125 1.875-.39.188-.094.188-.094.641-.578a.831.831 0 01.61-.266c.468 0 .859.39.859.844 0 .39-.328.843-.906 1.25-.75.547-1.907.843-3.125.843-2.891 0-5-1.89-5-4.468v-1.125c0-2.72 2-4.797 4.625-4.797.875 0 1.468.14 2.406.578z"/><text font-family="sans-serif" font-size="12" lengthAdjust="spacingAndGlyphs" textLength="92" x="388.25" y="153.154">ThreadContext</text><path stroke="#a80036" stroke-width="1.5" d="M313.5 165h209"/><text font-family="sans-serif" font-size="11" lengthAdjust="spacingAndGlyphs" textLength="199" x="318.5" y="179.21">Js::ScriptContext* scriptContextList</text><text font-family="sans-serif" font-size="11" lengthAdjust="spacingAndGlyphs" textLength="102" x="318.5" y="192.015">Recycler* recycler</text><path stroke="#a80036" stroke-width="1.5" d="M313.5 198.609h209"/><path fill="#FEFECE" filter="url(#a)" stroke="#a80036" stroke-width="1.5" d="M437.5 8h177v48h-177z"/><circle cx="452.5" cy="24" fill="#ADD1B2" stroke="#a80036" r="11"/><path d="M454.844 19.672l.172.078c.218-.313.421-.406.718-.406s.579.14.735.406c.094.156.11.281.11.719v1.422c0 .422-.032.609-.142.765a.92.92 0 01-.703.36.895.895 0 01-.593-.25c-.141-.125-.172-.25-.235-.657-.094-.406-.265-.625-.75-.906a3.655 3.655 0 00-1.656-.406c-1.734 0-2.984 1.312-2.984 3.094v1.093c0 1.703 1.296 2.797 3.343 2.797.766 0 1.454-.125 1.875-.39.188-.094.188-.094.641-.578a.831.831 0 01.61-.266c.468 0 .859.39.859.844 0 .39-.328.843-.906 1.25-.75.547-1.907.843-3.125.843-2.891 0-5-1.89-5-4.468V23.89c0-2.72 2-4.797 4.625-4.797.875 0 1.468.14 2.406.578z"/><text font-family="sans-serif" font-size="12" lengthAdjust="spacingAndGlyphs" textLength="145" x="466.5" y="28.154">ThreadContextTLSEntry</text><path stroke="#a80036" stroke-width="1.5" d="M438.5 40h175M438.5 48h175"/><path fill="#FEFECE" filter="url(#a)" stroke="#a80036" stroke-width="1.5" d="M304 268h228v73.609H304z"/><circle cx="362.75" cy="284" fill="#ADD1B2" stroke="#a80036" r="11"/><path d="M365.094 279.672l.172.078c.218-.313.421-.406.718-.406s.579.14.735.406c.094.156.11.281.11.719v1.422c0 .421-.032.609-.142.765a.92.92 0 01-.703.36.895.895 0 01-.593-.25c-.141-.125-.172-.25-.235-.657-.094-.406-.265-.625-.75-.906a3.655 3.655 0 00-1.656-.406c-1.734 0-2.984 1.312-2.984 3.094v1.093c0 1.704 1.296 2.797 3.343 2.797.766 0 1.454-.125 1.875-.39.188-.094.188-.094.641-.579a.831.831 0 01.61-.265c.468 0 .859.39.859.844 0 .39-.328.843-.906 1.25-.75.546-1.907.843-3.125.843-2.891 0-5-1.89-5-4.468v-1.125c0-2.72 2-4.797 4.625-4.797.875 0 1.468.14 2.406.578z"/><text font-family="sans-serif" font-size="12" lengthAdjust="spacingAndGlyphs" textLength="102" x="383.25" y="288.154">Js::ScriptContext</text><path stroke="#a80036" stroke-width="1.5" d="M305 300h226"/><text font-family="sans-serif" font-size="11" lengthAdjust="spacingAndGlyphs" textLength="216" x="310" y="314.21">Js::JavascriptLibrary* javascriptLibrary</text><text font-family="sans-serif" font-size="11" lengthAdjust="spacingAndGlyphs" textLength="170" x="310" y="327.015">Js::GlobalObject* globalObject</text><path stroke="#a80036" stroke-width="1.5" d="M305 333.609h226"/><path fill="#FEFECE" filter="url(#a)" stroke="#a80036" stroke-width="1.5" d="M602 281h84v48h-84z"/><circle cx="617" cy="297" fill="#ADD1B2" stroke="#a80036" r="11"/><path d="M619.344 292.672l.172.078c.218-.313.422-.406.718-.406.297 0 .578.14.735.406.093.156.11.281.11.719v1.422c0 .421-.032.609-.141.765a.92.92 0 01-.704.36.895.895 0 01-.593-.25c-.141-.125-.172-.25-.235-.657-.093-.406-.265-.625-.75-.906a3.655 3.655 0 00-1.656-.406c-1.734 0-2.984 1.312-2.984 3.094v1.093c0 1.704 1.297 2.797 3.343 2.797.766 0 1.453-.125 1.875-.39.188-.094.188-.094.641-.579a.831.831 0 01.61-.265c.468 0 .859.39.859.844 0 .39-.328.843-.907 1.25-.75.546-1.906.843-3.125.843-2.89 0-5-1.89-5-4.468v-1.125c0-2.72 2-4.797 4.625-4.797.875 0 1.47.14 2.407.578z"/><text font-family="sans-serif" font-size="12" lengthAdjust="spacingAndGlyphs" textLength="52" x="631" y="301.154">Recycler</text><path stroke="#a80036" stroke-width="1.5" d="M603 313h82M603 321h82"/><path fill="#FEFECE" filter="url(#a)" stroke="#a80036" stroke-width="1.5" d="M268.5 525h191v60.805h-191z"/><circle cx="301.5" cy="541" fill="#ADD1B2" stroke="#a80036" r="11"/><path d="M303.844 536.672l.172.078c.218-.313.421-.406.718-.406s.579.14.735.406c.094.156.11.281.11.719v1.422c0 .422-.032.609-.142.765a.92.92 0 01-.703.36.895.895 0 01-.593-.25c-.141-.125-.172-.25-.235-.657-.094-.406-.265-.625-.75-.906a3.655 3.655 0 00-1.656-.406c-1.734 0-2.984 1.312-2.984 3.094v1.093c0 1.703 1.296 2.797 3.343 2.797.766 0 1.454-.125 1.875-.39.188-.094.188-.094.641-.578a.831.831 0 01.61-.266c.468 0 .859.39.859.844 0 .39-.328.843-.906 1.25-.75.547-1.907.843-3.125.843-2.891 0-5-1.89-5-4.468v-1.125c0-2.72 2-4.797 4.625-4.797.875 0 1.468.14 2.406.578z"/><text font-family="sans-serif" font-size="12" lengthAdjust="spacingAndGlyphs" textLength="119" x="319.5" y="545.154">Js::JavascriptLibrary</text><path stroke="#a80036" stroke-width="1.5" d="M269.5 557h189"/><text font-family="sans-serif" font-size="11" lengthAdjust="spacingAndGlyphs" textLength="179" x="274.5" y="571.21">Js::ScriptContext* scriptContext</text><path stroke="#a80036" stroke-width="1.5" d="M269.5 577.805h189"/><path fill="#FEFECE" filter="url(#a)" stroke="#a80036" stroke-width="1.5" d="M434 403h170v60.805H434z"/><circle cx="467.45" cy="419" fill="#ADD1B2" stroke="#a80036" r="11"/><path d="M469.794 414.672l.172.078c.218-.313.421-.406.718-.406s.578.14.735.406c.094.156.11.281.11.719v1.422c0 .421-.032.609-.142.765a.92.92 0 01-.703.36.895.895 0 01-.593-.25c-.141-.125-.172-.25-.235-.657-.094-.406-.265-.625-.75-.906a3.655 3.655 0 00-1.656-.406c-1.734 0-2.984 1.312-2.984 3.094v1.093c0 1.704 1.296 2.797 3.343 2.797.766 0 1.453-.125 1.875-.39.188-.094.188-.094.641-.579a.831.831 0 01.61-.265c.468 0 .859.39.859.844 0 .39-.328.843-.906 1.25-.75.546-1.907.843-3.125.843-2.891 0-5-1.89-5-4.468v-1.125c0-2.72 2-4.797 4.625-4.797.875 0 1.468.14 2.406.578z"/><text font-family="sans-serif" font-size="12" lengthAdjust="spacingAndGlyphs" textLength="97" x="485.55" y="423.154">Js::GlobalObject</text><path stroke="#a80036" stroke-width="1.5" d="M435 435h168"/><text font-family="sans-serif" font-size="11" lengthAdjust="spacingAndGlyphs" textLength="158" x="440" y="449.21">Js::JavascriptLibrary* library</text><path stroke="#a80036" stroke-width="1.5" d="M435 455.805h168"/><path d="M145.923 213.268l-17.382 60.838" fill="none" stroke="#a80036"/><path fill="#A80036" stroke="#a80036" d="M149.567 200.517l-5.494 4.67 2.197 6.868 5.495-4.67-2.198-6.868z"/><text font-family="sans-serif" font-size="13" lengthAdjust="spacingAndGlyphs" textLength="8" x="139.003" y="220.459">1</text><text font-family="sans-serif" font-size="13" lengthAdjust="spacingAndGlyphs" textLength="8" x="121.478" y="263.288">n</text><path d="M247.145 305h56.622" fill="none" stroke="#a80036"/><path fill="#A80036" stroke="#a80036" d="M234.078 305l6 4 6-4-6-4-6 4z"/><text font-family="sans-serif" font-size="13" lengthAdjust="spacingAndGlyphs" textLength="8" x="242.011" y="301.574">1</text><text font-family="sans-serif" font-size="13" lengthAdjust="spacingAndGlyphs" textLength="8" x="287.823" y="301.581">1</text><path d="M400.839 342.134c-14.998 47.666-33.049 130.976-38.484 177.83" fill="none" stroke="#a80036"/><path fill="#A80036" stroke="#a80036" d="M361.812 524.936l4.954-8.512-4.411 3.542-3.542-4.41 2.999 9.38z"/><path d="M419.398 347.179c-6.314 50.134-24.853 133.568-39.855 177.757" fill="none" stroke="#a80036"/><path fill="#A80036" stroke="#a80036" d="M420.004 342.134l-5.046 8.458 4.449-3.494 3.494 4.45-2.897-9.414z"/><path d="M455.067 352.426l40.094 50.217" fill="none" stroke="#a80036"/><path fill="#A80036" stroke="#a80036" d="M446.943 342.25l.618 7.185 6.869 2.193-.618-7.185-6.869-2.193z"/><text font-family="sans-serif" font-size="13" lengthAdjust="spacingAndGlyphs" textLength="8" x="443.074" y="361.772">1</text><text font-family="sans-serif" font-size="13" lengthAdjust="spacingAndGlyphs" textLength="8" x="481.419" y="391.833">1</text><path d="M470.224 472.262l-68.082 52.709" fill="none" stroke="#a80036"/><path fill="#A80036" stroke="#a80036" d="M480.685 464.163l-7.193.51-2.296 6.835 7.193-.51 2.296-6.835z"/><text font-family="sans-serif" font-size="13" lengthAdjust="spacingAndGlyphs" textLength="8" x="464.354" y="483.776">1</text><text font-family="sans-serif" font-size="13" lengthAdjust="spacingAndGlyphs" textLength="8" x="401.611" y="513.755">1</text><path d="M158.749 345.464l166.846 169.923" fill="none" stroke="#a80036"/><path fill="#A80036" stroke="#a80036" d="M334.843 524.806l-3.452-9.225-.051 5.657-5.657-.052 9.16 3.62z"/><path stroke="#a80036" d="M331.34 521.238l-5.604-5.708"/><path fill="#A80036" stroke="#a80036" d="M149.432 335.975l1.35 7.084 7.058 1.478-1.35-7.084-7.058-1.478z"/><path d="M243.688 170h68.543" fill="none" stroke="#a80036"/><path fill="#A80036" stroke="#a80036" d="M230.617 170l6 4 6-4-6-4-6 4z"/><text font-family="sans-serif" font-size="13" lengthAdjust="spacingAndGlyphs" textLength="8" x="238.518" y="166.31">1</text><text font-family="sans-serif" font-size="13" lengthAdjust="spacingAndGlyphs" textLength="8" x="296.513" y="166.558">1</text><path d="M328.321 56.071l57.865 72.867" fill="none" stroke="#a80036"/><path fill="#A80036" stroke="#a80036" d="M389.41 132.998l-2.465-9.535-.645 5.62-5.62-.645 8.73 4.56z"/><text font-family="sans-serif" font-size="13" lengthAdjust="spacingAndGlyphs" textLength="8" x="323.991" y="76.245">1</text><text font-family="sans-serif" font-size="13" lengthAdjust="spacingAndGlyphs" textLength="8" x="375.401" y="121.908">n</text><path d="M507.679 56.071l-57.865 72.867" fill="none" stroke="#a80036"/><path fill="#A80036" stroke="#a80036" d="M446.59 132.998l8.73-4.56-5.62.645-.645-5.62-2.465 9.535z"/><text font-family="sans-serif" font-size="13" lengthAdjust="spacingAndGlyphs" textLength="276" x="483" y="99.067">Only when thread context scope is created.</text><path d="M418 207.343v54.981" fill="none" stroke="#a80036"/><path fill="#A80036" stroke="#a80036" d="M418 267.701l4-9-4 4-4-4 4 9z"/><text font-family="sans-serif" font-size="13" lengthAdjust="spacingAndGlyphs" textLength="8" x="409.363" y="226.599">1</text><text font-family="sans-serif" font-size="13" lengthAdjust="spacingAndGlyphs" textLength="8" x="409.288" y="256.835">n</text><path d="M490.934 213.921l113.676 66.898" fill="none" stroke="#a80036"/><path fill="#A80036" stroke="#a80036" d="M479.457 207.167l3.142 6.49 7.2-.403-3.142-6.49-7.2.403z"/><text font-family="sans-serif" font-size="13" lengthAdjust="spacingAndGlyphs" textLength="8" x="480.973" y="226.675">1</text><text font-family="sans-serif" font-size="13" lengthAdjust="spacingAndGlyphs" textLength="8" x="586.034" y="270.18">1</text></svg>