<?xml version="1.0" encoding="UTF-8" standalone="no"?><svg xmlns="http://www.w3.org/2000/svg" xmlns:xlink="http://www.w3.org/1999/xlink" contentScriptType="application/ecmascript" contentStyleType="text/css" height="594px" preserveAspectRatio="none" style="width:760px;height:594px;" version="1.1" viewBox="0 0 760 594" width="760px" zoomAndPan="magnify"><defs><filter height="300%" id="fykknub" width="300%" x="-1" y="-1"><feGaussianBlur result="blurOut" stdDeviation="2.0"/><feColorMatrix in="blurOut" result="blurOut2" type="matrix" values="0 0 0 0 0 0 0 0 0 0 0 0 0 0 0 0 0 0 .4 0"/><feOffset dx="4.0" dy="4.0" in="blurOut2" result="blurOut3"/><feBlend in="SourceGraphic" in2="blurOut3" mode="normal"/></filter></defs><g><!--class JsrtRuntime--><rect fill="#FEFECE" filter="url(#fykknub)" height="60.8047" style="stroke: #A80036; stroke-width: 1.5;" width="145" x="85.5" y="139.5"/><ellipse cx="119.4" cy="155.5" fill="#ADD1B2" rx="11" ry="11" style="stroke: #A80036; stroke-width: 1.0;"/><path d="M121.7438,151.1719 L121.9156,151.25 C122.1344,150.9375 122.3375,150.8438 122.6344,150.8438 C122.9313,150.8438 123.2125,150.9844 123.3688,151.25 C123.4625,151.4063 123.4781,151.5313 123.4781,151.9688 L123.4781,153.3906 C123.4781,153.8125 123.4469,154 123.3375,154.1563 C123.1656,154.375 122.9,154.5156 122.6344,154.5156 C122.4156,154.5156 122.1813,154.4063 122.0406,154.2656 C121.9,154.1406 121.8688,154.0156 121.8063,153.6094 C121.7125,153.2031 121.5406,152.9844 121.0563,152.7031 C120.5875,152.4531 119.9781,152.2969 119.4,152.2969 C117.6656,152.2969 116.4156,153.6094 116.4156,155.3906 L116.4156,156.4844 C116.4156,158.1875 117.7125,159.2813 119.7594,159.2813 C120.525,159.2813 121.2125,159.1563 121.6344,158.8906 C121.8219,158.7969 121.8219,158.7969 122.275,158.3125 C122.4625,158.125 122.6656,158.0469 122.8844,158.0469 C123.3531,158.0469 123.7438,158.4375 123.7438,158.8906 C123.7438,159.2813 123.4156,159.7344 122.8375,160.1406 C122.0875,160.6875 120.9313,160.9844 119.7125,160.9844 C116.8219,160.9844 114.7125,159.0938 114.7125,156.5156 L114.7125,155.3906 C114.7125,152.6719 116.7125,150.5938 119.3375,150.5938 C120.2125,150.5938 120.8063,150.7344 121.7438,151.1719 Z "/><text fill="#000000" font-family="sans-serif" font-size="12" lengthAdjust="spacingAndGlyphs" textLength="71" x="137.6" y="159.6543">JsrtRuntime</text><line style="stroke: #A80036; stroke-width: 1.5;" x1="86.5" x2="229.5" y1="171.5" y2="171.5"/><text fill="#000000" font-family="sans-serif" font-size="11" lengthAdjust="spacingAndGlyphs" textLength="133" x="91.5" y="185.7104">JsrtContext* contextList</text><line style="stroke: #A80036; stroke-width: 1.5;" x1="86.5" x2="229.5" y1="192.3047" y2="192.3047"/><!--class JsrtContext--><rect fill="#FEFECE" filter="url(#fykknub)" height="60.8047" style="stroke: #A80036; stroke-width: 1.5;" width="228" x="6" y="274.5"/><ellipse cx="81.75" cy="290.5" fill="#ADD1B2" rx="11" ry="11" style="stroke: #A80036; stroke-width: 1.0;"/><path d="M84.0938,286.1719 L84.2656,286.25 C84.4844,285.9375 84.6875,285.8438 84.9844,285.8438 C85.2813,285.8438 85.5625,285.9844 85.7188,286.25 C85.8125,286.4063 85.8281,286.5313 85.8281,286.9688 L85.8281,288.3906 C85.8281,288.8125 85.7969,289 85.6875,289.1563 C85.5156,289.375 85.25,289.5156 84.9844,289.5156 C84.7656,289.5156 84.5313,289.4063 84.3906,289.2656 C84.25,289.1406 84.2188,289.0156 84.1563,288.6094 C84.0625,288.2031 83.8906,287.9844 83.4063,287.7031 C82.9375,287.4531 82.3281,287.2969 81.75,287.2969 C80.0156,287.2969 78.7656,288.6094 78.7656,290.3906 L78.7656,291.4844 C78.7656,293.1875 80.0625,294.2813 82.1094,294.2813 C82.875,294.2813 83.5625,294.1563 83.9844,293.8906 C84.1719,293.7969 84.1719,293.7969 84.625,293.3125 C84.8125,293.125 85.0156,293.0469 85.2344,293.0469 C85.7031,293.0469 86.0938,293.4375 86.0938,293.8906 C86.0938,294.2813 85.7656,294.7344 85.1875,295.1406 C84.4375,295.6875 83.2813,295.9844 82.0625,295.9844 C79.1719,295.9844 77.0625,294.0938 77.0625,291.5156 L77.0625,290.3906 C77.0625,287.6719 79.0625,285.5938 81.6875,285.5938 C82.5625,285.5938 83.1563,285.7344 84.0938,286.1719 Z "/><text fill="#000000" font-family="sans-serif" font-size="12" lengthAdjust="spacingAndGlyphs" textLength="68" x="102.25" y="294.6543">JsrtContext</text><line style="stroke: #A80036; stroke-width: 1.5;" x1="7" x2="233" y1="306.5" y2="306.5"/><text fill="#000000" font-family="sans-serif" font-size="11" lengthAdjust="spacingAndGlyphs" textLength="216" x="12" y="320.7104">Js::JavascriptLibrary* javascriptLibrary</text><line style="stroke: #A80036; stroke-width: 1.5;" x1="7" x2="233" y1="327.3047" y2="327.3047"/><!--class ThreadContextGlobalList--><rect fill="#FEFECE" filter="url(#fykknub)" height="48" style="stroke: #A80036; stroke-width: 1.5;" width="184" x="218" y="8"/><ellipse cx="233" cy="24" fill="#ADD1B2" rx="11" ry="11" style="stroke: #A80036; stroke-width: 1.0;"/><path d="M235.3438,19.6719 L235.5156,19.75 C235.7344,19.4375 235.9375,19.3438 236.2344,19.3438 C236.5313,19.3438 236.8125,19.4844 236.9688,19.75 C237.0625,19.9063 237.0781,20.0313 237.0781,20.4688 L237.0781,21.8906 C237.0781,22.3125 237.0469,22.5 236.9375,22.6563 C236.7656,22.875 236.5,23.0156 236.2344,23.0156 C236.0156,23.0156 235.7813,22.9063 235.6406,22.7656 C235.5,22.6406 235.4688,22.5156 235.4063,22.1094 C235.3125,21.7031 235.1406,21.4844 234.6563,21.2031 C234.1875,20.9531 233.5781,20.7969 233,20.7969 C231.2656,20.7969 230.0156,22.1094 230.0156,23.8906 L230.0156,24.9844 C230.0156,26.6875 231.3125,27.7813 233.3594,27.7813 C234.125,27.7813 234.8125,27.6563 235.2344,27.3906 C235.4219,27.2969 235.4219,27.2969 235.875,26.8125 C236.0625,26.625 236.2656,26.5469 236.4844,26.5469 C236.9531,26.5469 237.3438,26.9375 237.3438,27.3906 C237.3438,27.7813 237.0156,28.2344 236.4375,28.6406 C235.6875,29.1875 234.5313,29.4844 233.3125,29.4844 C230.4219,29.4844 228.3125,27.5938 228.3125,25.0156 L228.3125,23.8906 C228.3125,21.1719 230.3125,19.0938 232.9375,19.0938 C233.8125,19.0938 234.4063,19.2344 235.3438,19.6719 Z "/><text fill="#000000" font-family="sans-serif" font-size="12" lengthAdjust="spacingAndGlyphs" textLength="152" x="247" y="28.1543">ThreadContextGlobalList</text><line style="stroke: #A80036; stroke-width: 1.5;" x1="219" x2="401" y1="40" y2="40"/><line style="stroke: #A80036; stroke-width: 1.5;" x1="219" x2="401" y1="48" y2="48"/><!--class ThreadContext--><rect fill="#FEFECE" filter="url(#fykknub)" height="73.6094" style="stroke: #A80036; stroke-width: 1.5;" width="211" x="312.5" y="133"/><ellipse cx="367.75" cy="149" fill="#ADD1B2" rx="11" ry="11" style="stroke: #A80036; stroke-width: 1.0;"/><path d="M370.0938,144.6719 L370.2656,144.75 C370.4844,144.4375 370.6875,144.3438 370.9844,144.3438 C371.2813,144.3438 371.5625,144.4844 371.7188,144.75 C371.8125,144.9063 371.8281,145.0313 371.8281,145.4688 L371.8281,146.8906 C371.8281,147.3125 371.7969,147.5 371.6875,147.6563 C371.5156,147.875 371.25,148.0156 370.9844,148.0156 C370.7656,148.0156 370.5313,147.9063 370.3906,147.7656 C370.25,147.6406 370.2188,147.5156 370.1563,147.1094 C370.0625,146.7031 369.8906,146.4844 369.4063,146.2031 C368.9375,145.9531 368.3281,145.7969 367.75,145.7969 C366.0156,145.7969 364.7656,147.1094 364.7656,148.8906 L364.7656,149.9844 C364.7656,151.6875 366.0625,152.7813 368.1094,152.7813 C368.875,152.7813 369.5625,152.6563 369.9844,152.3906 C370.1719,152.2969 370.1719,152.2969 370.625,151.8125 C370.8125,151.625 371.0156,151.5469 371.2344,151.5469 C371.7031,151.5469 372.0938,151.9375 372.0938,152.3906 C372.0938,152.7813 371.7656,153.2344 371.1875,153.6406 C370.4375,154.1875 369.2813,154.4844 368.0625,154.4844 C365.1719,154.4844 363.0625,152.5938 363.0625,150.0156 L363.0625,148.8906 C363.0625,146.1719 365.0625,144.0938 367.6875,144.0938 C368.5625,144.0938 369.1563,144.2344 370.0938,144.6719 Z "/><text fill="#000000" font-family="sans-serif" font-size="12" lengthAdjust="spacingAndGlyphs" textLength="92" x="388.25" y="153.1543">ThreadContext</text><line style="stroke: #A80036; stroke-width: 1.5;" x1="313.5" x2="522.5" y1="165" y2="165"/><text fill="#000000" font-family="sans-serif" font-size="11" lengthAdjust="spacingAndGlyphs" textLength="199" x="318.5" y="179.2104">Js::ScriptContext* scriptContextList</text><text fill="#000000" font-family="sans-serif" font-size="11" lengthAdjust="spacingAndGlyphs" textLength="102" x="318.5" y="192.0151">Recycler* recycler</text><line style="stroke: #A80036; stroke-width: 1.5;" x1="313.5" x2="522.5" y1="198.6094" y2="198.6094"/><!--class ThreadContextTLSEntry--><rect fill="#FEFECE" filter="url(#fykknub)" height="48" style="stroke: #A80036; stroke-width: 1.5;" width="177" x="437.5" y="8"/><ellipse cx="452.5" cy="24" fill="#ADD1B2" rx="11" ry="11" style="stroke: #A80036; stroke-width: 1.0;"/><path d="M454.8438,19.6719 L455.0156,19.75 C455.2344,19.4375 455.4375,19.3438 455.7344,19.3438 C456.0313,19.3438 456.3125,19.4844 456.4688,19.75 C456.5625,19.9063 456.5781,20.0313 456.5781,20.4688 L456.5781,21.8906 C456.5781,22.3125 456.5469,22.5 456.4375,22.6563 C456.2656,22.875 456,23.0156 455.7344,23.0156 C455.5156,23.0156 455.2813,22.9063 455.1406,22.7656 C455,22.6406 454.9688,22.5156 454.9063,22.1094 C454.8125,21.7031 454.6406,21.4844 454.1563,21.2031 C453.6875,20.9531 453.0781,20.7969 452.5,20.7969 C450.7656,20.7969 449.5156,22.1094 449.5156,23.8906 L449.5156,24.9844 C449.5156,26.6875 450.8125,27.7813 452.8594,27.7813 C453.625,27.7813 454.3125,27.6563 454.7344,27.3906 C454.9219,27.2969 454.9219,27.2969 455.375,26.8125 C455.5625,26.625 455.7656,26.5469 455.9844,26.5469 C456.4531,26.5469 456.8438,26.9375 456.8438,27.3906 C456.8438,27.7813 456.5156,28.2344 455.9375,28.6406 C455.1875,29.1875 454.0313,29.4844 452.8125,29.4844 C449.9219,29.4844 447.8125,27.5938 447.8125,25.0156 L447.8125,23.8906 C447.8125,21.1719 449.8125,19.0938 452.4375,19.0938 C453.3125,19.0938 453.9063,19.2344 454.8438,19.6719 Z "/><text fill="#000000" font-family="sans-serif" font-size="12" lengthAdjust="spacingAndGlyphs" textLength="145" x="466.5" y="28.1543">ThreadContextTLSEntry</text><line style="stroke: #A80036; stroke-width: 1.5;" x1="438.5" x2="613.5" y1="40" y2="40"/><line style="stroke: #A80036; stroke-width: 1.5;" x1="438.5" x2="613.5" y1="48" y2="48"/><!--class Js::ScriptContext--><rect fill="#FEFECE" filter="url(#fykknub)" height="73.6094" style="stroke: #A80036; stroke-width: 1.5;" width="228" x="304" y="268"/><ellipse cx="362.75" cy="284" fill="#ADD1B2" rx="11" ry="11" style="stroke: #A80036; stroke-width: 1.0;"/><path d="M365.0938,279.6719 L365.2656,279.75 C365.4844,279.4375 365.6875,279.3438 365.9844,279.3438 C366.2813,279.3438 366.5625,279.4844 366.7188,279.75 C366.8125,279.9063 366.8281,280.0313 366.8281,280.4688 L366.8281,281.8906 C366.8281,282.3125 366.7969,282.5 366.6875,282.6563 C366.5156,282.875 366.25,283.0156 365.9844,283.0156 C365.7656,283.0156 365.5313,282.9063 365.3906,282.7656 C365.25,282.6406 365.2188,282.5156 365.1563,282.1094 C365.0625,281.7031 364.8906,281.4844 364.4063,281.2031 C363.9375,280.9531 363.3281,280.7969 362.75,280.7969 C361.0156,280.7969 359.7656,282.1094 359.7656,283.8906 L359.7656,284.9844 C359.7656,286.6875 361.0625,287.7813 363.1094,287.7813 C363.875,287.7813 364.5625,287.6563 364.9844,287.3906 C365.1719,287.2969 365.1719,287.2969 365.625,286.8125 C365.8125,286.625 366.0156,286.5469 366.2344,286.5469 C366.7031,286.5469 367.0938,286.9375 367.0938,287.3906 C367.0938,287.7813 366.7656,288.2344 366.1875,288.6406 C365.4375,289.1875 364.2813,289.4844 363.0625,289.4844 C360.1719,289.4844 358.0625,287.5938 358.0625,285.0156 L358.0625,283.8906 C358.0625,281.1719 360.0625,279.0938 362.6875,279.0938 C363.5625,279.0938 364.1563,279.2344 365.0938,279.6719 Z "/><text fill="#000000" font-family="sans-serif" font-size="12" lengthAdjust="spacingAndGlyphs" textLength="102" x="383.25" y="288.1543">Js::ScriptContext</text><line style="stroke: #A80036; stroke-width: 1.5;" x1="305" x2="531" y1="300" y2="300"/><text fill="#000000" font-family="sans-serif" font-size="11" lengthAdjust="spacingAndGlyphs" textLength="216" x="310" y="314.2104">Js::JavascriptLibrary* javascriptLibrary</text><text fill="#000000" font-family="sans-serif" font-size="11" lengthAdjust="spacingAndGlyphs" textLength="170" x="310" y="327.0151">Js::GlobalObject* globalObject</text><line style="stroke: #A80036; stroke-width: 1.5;" x1="305" x2="531" y1="333.6094" y2="333.6094"/><!--class Recycler--><rect fill="#FEFECE" filter="url(#fykknub)" height="48" style="stroke: #A80036; stroke-width: 1.5;" width="84" x="602" y="281"/><ellipse cx="617" cy="297" fill="#ADD1B2" rx="11" ry="11" style="stroke: #A80036; stroke-width: 1.0;"/><path d="M619.3438,292.6719 L619.5156,292.75 C619.7344,292.4375 619.9375,292.3438 620.2344,292.3438 C620.5313,292.3438 620.8125,292.4844 620.9688,292.75 C621.0625,292.9063 621.0781,293.0313 621.0781,293.4688 L621.0781,294.8906 C621.0781,295.3125 621.0469,295.5 620.9375,295.6563 C620.7656,295.875 620.5,296.0156 620.2344,296.0156 C620.0156,296.0156 619.7813,295.9063 619.6406,295.7656 C619.5,295.6406 619.4688,295.5156 619.4063,295.1094 C619.3125,294.7031 619.1406,294.4844 618.6563,294.2031 C618.1875,293.9531 617.5781,293.7969 617,293.7969 C615.2656,293.7969 614.0156,295.1094 614.0156,296.8906 L614.0156,297.9844 C614.0156,299.6875 615.3125,300.7813 617.3594,300.7813 C618.125,300.7813 618.8125,300.6563 619.2344,300.3906 C619.4219,300.2969 619.4219,300.2969 619.875,299.8125 C620.0625,299.625 620.2656,299.5469 620.4844,299.5469 C620.9531,299.5469 621.3438,299.9375 621.3438,300.3906 C621.3438,300.7813 621.0156,301.2344 620.4375,301.6406 C619.6875,302.1875 618.5313,302.4844 617.3125,302.4844 C614.4219,302.4844 612.3125,300.5938 612.3125,298.0156 L612.3125,296.8906 C612.3125,294.1719 614.3125,292.0938 616.9375,292.0938 C617.8125,292.0938 618.4063,292.2344 619.3438,292.6719 Z "/><text fill="#000000" font-family="sans-serif" font-size="12" lengthAdjust="spacingAndGlyphs" textLength="52" x="631" y="301.1543">Recycler</text><line style="stroke: #A80036; stroke-width: 1.5;" x1="603" x2="685" y1="313" y2="313"/><line style="stroke: #A80036; stroke-width: 1.5;" x1="603" x2="685" y1="321" y2="321"/><!--class Js::JavascriptLibrary--><rect fill="#FEFECE" filter="url(#fykknub)" height="60.8047" style="stroke: #A80036; stroke-width: 1.5;" width="191" x="268.5" y="525"/><ellipse cx="301.5" cy="541" fill="#ADD1B2" rx="11" ry="11" style="stroke: #A80036; stroke-width: 1.0;"/><path d="M303.8438,536.6719 L304.0156,536.75 C304.2344,536.4375 304.4375,536.3438 304.7344,536.3438 C305.0313,536.3438 305.3125,536.4844 305.4688,536.75 C305.5625,536.9063 305.5781,537.0313 305.5781,537.4688 L305.5781,538.8906 C305.5781,539.3125 305.5469,539.5 305.4375,539.6563 C305.2656,539.875 305,540.0156 304.7344,540.0156 C304.5156,540.0156 304.2813,539.9063 304.1406,539.7656 C304,539.6406 303.9688,539.5156 303.9063,539.1094 C303.8125,538.7031 303.6406,538.4844 303.1563,538.2031 C302.6875,537.9531 302.0781,537.7969 301.5,537.7969 C299.7656,537.7969 298.5156,539.1094 298.5156,540.8906 L298.5156,541.9844 C298.5156,543.6875 299.8125,544.7813 301.8594,544.7813 C302.625,544.7813 303.3125,544.6563 303.7344,544.3906 C303.9219,544.2969 303.9219,544.2969 304.375,543.8125 C304.5625,543.625 304.7656,543.5469 304.9844,543.5469 C305.4531,543.5469 305.8438,543.9375 305.8438,544.3906 C305.8438,544.7813 305.5156,545.2344 304.9375,545.6406 C304.1875,546.1875 303.0313,546.4844 301.8125,546.4844 C298.9219,546.4844 296.8125,544.5938 296.8125,542.0156 L296.8125,540.8906 C296.8125,538.1719 298.8125,536.0938 301.4375,536.0938 C302.3125,536.0938 302.9063,536.2344 303.8438,536.6719 Z "/><text fill="#000000" font-family="sans-serif" font-size="12" lengthAdjust="spacingAndGlyphs" textLength="119" x="319.5" y="545.1543">Js::JavascriptLibrary</text><line style="stroke: #A80036; stroke-width: 1.5;" x1="269.5" x2="458.5" y1="557" y2="557"/><text fill="#000000" font-family="sans-serif" font-size="11" lengthAdjust="spacingAndGlyphs" textLength="179" x="274.5" y="571.2104">Js::ScriptContext* scriptContext</text><line style="stroke: #A80036; stroke-width: 1.5;" x1="269.5" x2="458.5" y1="577.8047" y2="577.8047"/><!--class Js::GlobalObject--><rect fill="#FEFECE" filter="url(#fykknub)" height="60.8047" style="stroke: #A80036; stroke-width: 1.5;" width="170" x="434" y="403"/><ellipse cx="467.45" cy="419" fill="#ADD1B2" rx="11" ry="11" style="stroke: #A80036; stroke-width: 1.0;"/><path d="M469.7938,414.6719 L469.9656,414.75 C470.1844,414.4375 470.3875,414.3438 470.6844,414.3438 C470.9813,414.3438 471.2625,414.4844 471.4188,414.75 C471.5125,414.9063 471.5281,415.0313 471.5281,415.4688 L471.5281,416.8906 C471.5281,417.3125 471.4969,417.5 471.3875,417.6563 C471.2156,417.875 470.95,418.0156 470.6844,418.0156 C470.4656,418.0156 470.2313,417.9063 470.0906,417.7656 C469.95,417.6406 469.9188,417.5156 469.8563,417.1094 C469.7625,416.7031 469.5906,416.4844 469.1063,416.2031 C468.6375,415.9531 468.0281,415.7969 467.45,415.7969 C465.7156,415.7969 464.4656,417.1094 464.4656,418.8906 L464.4656,419.9844 C464.4656,421.6875 465.7625,422.7813 467.8094,422.7813 C468.575,422.7813 469.2625,422.6563 469.6844,422.3906 C469.8719,422.2969 469.8719,422.2969 470.325,421.8125 C470.5125,421.625 470.7156,421.5469 470.9344,421.5469 C471.4031,421.5469 471.7938,421.9375 471.7938,422.3906 C471.7938,422.7813 471.4656,423.2344 470.8875,423.6406 C470.1375,424.1875 468.9813,424.4844 467.7625,424.4844 C464.8719,424.4844 462.7625,422.5938 462.7625,420.0156 L462.7625,418.8906 C462.7625,416.1719 464.7625,414.0938 467.3875,414.0938 C468.2625,414.0938 468.8563,414.2344 469.7938,414.6719 Z "/><text fill="#000000" font-family="sans-serif" font-size="12" lengthAdjust="spacingAndGlyphs" textLength="97" x="485.55" y="423.1543">Js::GlobalObject</text><line style="stroke: #A80036; stroke-width: 1.5;" x1="435" x2="603" y1="435" y2="435"/><text fill="#000000" font-family="sans-serif" font-size="11" lengthAdjust="spacingAndGlyphs" textLength="158" x="440" y="449.2104">Js::JavascriptLibrary* library</text><line style="stroke: #A80036; stroke-width: 1.5;" x1="435" x2="603" y1="455.8047" y2="455.8047"/><path d="M145.923,213.268 C140.269,233.058 133.668,256.164 128.541,274.106 " fill="none" style="stroke: #A80036; stroke-width: 1.0;"/><polygon fill="#A80036" points="149.567,200.517,144.0726,205.1873,146.2703,212.0553,151.7648,207.385,149.567,200.517" style="stroke: #A80036; stroke-width: 1.0;"/><text fill="#000000" font-family="sans-serif" font-size="13" lengthAdjust="spacingAndGlyphs" textLength="8" x="139.0027" y="220.4587">1</text><text fill="#000000" font-family="sans-serif" font-size="13" lengthAdjust="spacingAndGlyphs" textLength="8" x="121.4776" y="263.288">n</text><path d="M247.145,305 C266.019,305 284.893,305 303.767,305 " fill="none" style="stroke: #A80036; stroke-width: 1.0;"/><polygon fill="#A80036" points="234.078,305,240.078,309,246.078,305,240.078,301,234.078,305" style="stroke: #A80036; stroke-width: 1.0;"/><text fill="#000000" font-family="sans-serif" font-size="13" lengthAdjust="spacingAndGlyphs" textLength="8" x="242.0114" y="301.574">1</text><text fill="#000000" font-family="sans-serif" font-size="13" lengthAdjust="spacingAndGlyphs" textLength="8" x="287.8232" y="301.5806">1</text><path d="M400.839,342.134 C385.841,389.8 367.79,473.11 362.355,519.9635 " fill="none" style="stroke: #A80036; stroke-width: 1.0;"/><polygon fill="#A80036" points="361.812,524.9363,366.7656,516.4238,362.3549,519.9659,358.8129,515.5552,361.812,524.9363" style="stroke: #A80036; stroke-width: 1.0;"/><path d="M419.398,347.179 C413.084,397.313 394.545,480.747 379.543,524.9363 " fill="none" style="stroke: #A80036; stroke-width: 1.0;"/><polygon fill="#A80036" points="420.004,342.134,414.9578,350.5919,419.4069,347.0982,422.9005,351.5473,420.004,342.134" style="stroke: #A80036; stroke-width: 1.0;"/><path d="M455.067,352.426 C468.458,369.197 483.207,387.67 495.161,402.643 " fill="none" style="stroke: #A80036; stroke-width: 1.0;"/><polygon fill="#A80036" points="446.943,342.25,447.5605,349.4346,454.43,351.6279,453.8125,344.4433,446.943,342.25" style="stroke: #A80036; stroke-width: 1.0;"/><text fill="#000000" font-family="sans-serif" font-size="13" lengthAdjust="spacingAndGlyphs" textLength="8" x="443.0742" y="361.772">1</text><text fill="#000000" font-family="sans-serif" font-size="13" lengthAdjust="spacingAndGlyphs" textLength="8" x="481.4192" y="391.8326">1</text><path d="M470.224,472.262 C448.248,489.2755 422.684,509.067 402.142,524.9706 " fill="none" style="stroke: #A80036; stroke-width: 1.0;"/><polygon fill="#A80036" points="480.685,464.163,473.4919,464.6725,471.1956,471.5082,478.3887,470.9987,480.685,464.163" style="stroke: #A80036; stroke-width: 1.0;"/><text fill="#000000" font-family="sans-serif" font-size="13" lengthAdjust="spacingAndGlyphs" textLength="8" x="464.3542" y="483.7755">1</text><text fill="#000000" font-family="sans-serif" font-size="13" lengthAdjust="spacingAndGlyphs" textLength="8" x="401.6106" y="513.7545">1</text><path d="M158.749,345.464 C204.472,392.03 280.023,468.974 325.595,515.3869 " fill="none" style="stroke: #A80036; stroke-width: 1.0;"/><polygon fill="#A80036" points="334.843,524.8056,331.3915,515.5813,331.3399,521.238,325.6832,521.1864,334.843,524.8056" style="stroke: #A80036; stroke-width: 1.0;"/><line style="stroke: #A80036; stroke-width: 1.0;" x1="331.3399" x2="325.7355" y1="521.238" y2="515.5296"/><polygon fill="#A80036" points="149.432,335.975,150.7819,343.0586,157.8398,344.5371,156.4899,337.4534,149.432,335.975" style="stroke: #A80036; stroke-width: 1.0;"/><path d="M243.688,170 C266.536,170 289.384,170 312.231,170 " fill="none" style="stroke: #A80036; stroke-width: 1.0;"/><polygon fill="#A80036" points="230.617,170,236.617,174,242.617,170,236.617,166,230.617,170" style="stroke: #A80036; stroke-width: 1.0;"/><text fill="#000000" font-family="sans-serif" font-size="13" lengthAdjust="spacingAndGlyphs" textLength="8" x="238.5181" y="166.3104">1</text><text fill="#000000" font-family="sans-serif" font-size="13" lengthAdjust="spacingAndGlyphs" textLength="8" x="296.5129" y="166.558">1</text><path d="M328.321,56.071 C344.136,75.986 367.342,105.209 386.186,128.938 " fill="none" style="stroke: #A80036; stroke-width: 1.0;"/><polygon fill="#A80036" points="389.41,132.998,386.9448,123.4627,386.3003,129.0827,380.6803,128.4382,389.41,132.998" style="stroke: #A80036; stroke-width: 1.0;"/><text fill="#000000" font-family="sans-serif" font-size="13" lengthAdjust="spacingAndGlyphs" textLength="8" x="323.9908" y="76.245">1</text><text fill="#000000" font-family="sans-serif" font-size="13" lengthAdjust="spacingAndGlyphs" textLength="8" x="375.4012" y="121.9081">n</text><path d="M507.679,56.071 C491.864,75.986 468.658,105.209 449.814,128.938 " fill="none" style="stroke: #A80036; stroke-width: 1.0;"/><polygon fill="#A80036" points="446.59,132.998,455.3197,128.4382,449.6997,129.0827,449.0552,123.4627,446.59,132.998" style="stroke: #A80036; stroke-width: 1.0;"/><text fill="#000000" font-family="sans-serif" font-size="13" lengthAdjust="spacingAndGlyphs" textLength="276" x="483" y="99.0669">Only when thread context scope is created.</text><path d="M418,207.343 C418,224.35 418,244.696 418,262.324 " fill="none" style="stroke: #A80036; stroke-width: 1.0;"/><polygon fill="#A80036" points="418,267.701,422,258.701,418,262.701,414,258.701,418,267.701" style="stroke: #A80036; stroke-width: 1.0;"/><text fill="#000000" font-family="sans-serif" font-size="13" lengthAdjust="spacingAndGlyphs" textLength="8" x="409.3625" y="226.5985">1</text><text fill="#000000" font-family="sans-serif" font-size="13" lengthAdjust="spacingAndGlyphs" textLength="8" x="409.2875" y="256.8347">n</text><path d="M490.934,213.921 C528.698,236.145 573.32,262.405 604.61,280.819 " fill="none" style="stroke: #A80036; stroke-width: 1.0;"/><polygon fill="#A80036" points="479.457,207.167,482.599,213.6576,489.7988,213.2537,486.6568,206.7631,479.457,207.167" style="stroke: #A80036; stroke-width: 1.0;"/><text fill="#000000" font-family="sans-serif" font-size="13" lengthAdjust="spacingAndGlyphs" textLength="8" x="480.9733" y="226.6752">1</text><text fill="#000000" font-family="sans-serif" font-size="13" lengthAdjust="spacingAndGlyphs" textLength="8" x="586.0337" y="270.1798">1</text></g></svg>