<?xml version="1.0" encoding="UTF-8" standalone="no"?><svg xmlns="http://www.w3.org/2000/svg" xmlns:xlink="http://www.w3.org/1999/xlink" contentScriptType="application/ecmascript" contentStyleType="text/css" height="190px" preserveAspectRatio="none" style="width:372px;height:190px;" version="1.1" viewBox="0 0 372 190" width="372px" zoomAndPan="magnify"><defs><filter height="300%" id="f05tjxj" width="300%" x="-1" y="-1"><feGaussianBlur result="blurOut" stdDeviation="2.0"/><feColorMatrix in="blurOut" result="blurOut2" type="matrix" values="0 0 0 0 0 0 0 0 0 0 0 0 0 0 0 0 0 0 .4 0"/><feOffset dx="4.0" dy="4.0" in="blurOut2" result="blurOut3"/><feBlend in="SourceGraphic" in2="blurOut3" mode="normal"/></filter></defs><g><!--class ThreadContextTLSEntry--><rect fill="#FEFECE" filter="url(#f05tjxj)" height="48" style="stroke: #A80036; stroke-width: 1.5;" width="177" x="6" y="8"/><ellipse cx="21" cy="24" fill="#ADD1B2" rx="11" ry="11" style="stroke: #A80036; stroke-width: 1.0;"/><path d="M23.3438,19.6719 L23.5156,19.75 C23.7344,19.4375 23.9375,19.3438 24.2344,19.3438 C24.5313,19.3438 24.8125,19.4844 24.9688,19.75 C25.0625,19.9063 25.0781,20.0313 25.0781,20.4688 L25.0781,21.8906 C25.0781,22.3125 25.0469,22.5 24.9375,22.6563 C24.7656,22.875 24.5,23.0156 24.2344,23.0156 C24.0156,23.0156 23.7813,22.9063 23.6406,22.7656 C23.5,22.6406 23.4688,22.5156 23.4063,22.1094 C23.3125,21.7031 23.1406,21.4844 22.6563,21.2031 C22.1875,20.9531 21.5781,20.7969 21,20.7969 C19.2656,20.7969 18.0156,22.1094 18.0156,23.8906 L18.0156,24.9844 C18.0156,26.6875 19.3125,27.7813 21.3594,27.7813 C22.125,27.7813 22.8125,27.6563 23.2344,27.3906 C23.4219,27.2969 23.4219,27.2969 23.875,26.8125 C24.0625,26.625 24.2656,26.5469 24.4844,26.5469 C24.9531,26.5469 25.3438,26.9375 25.3438,27.3906 C25.3438,27.7813 25.0156,28.2344 24.4375,28.6406 C23.6875,29.1875 22.5313,29.4844 21.3125,29.4844 C18.4219,29.4844 16.3125,27.5938 16.3125,25.0156 L16.3125,23.8906 C16.3125,21.1719 18.3125,19.0938 20.9375,19.0938 C21.8125,19.0938 22.4063,19.2344 23.3438,19.6719 Z "/><text fill="#000000" font-family="sans-serif" font-size="12" lengthAdjust="spacingAndGlyphs" textLength="145" x="35" y="28.1543">ThreadContextTLSEntry</text><line style="stroke: #A80036; stroke-width: 1.5;" x1="7" x2="182" y1="40" y2="40"/><line style="stroke: #A80036; stroke-width: 1.5;" x1="7" x2="182" y1="48" y2="48"/><!--class ThreadContext--><rect fill="#FEFECE" filter="url(#f05tjxj)" height="48" style="stroke: #A80036; stroke-width: 1.5;" width="124" x="32.5" y="133"/><ellipse cx="47.5" cy="149" fill="#ADD1B2" rx="11" ry="11" style="stroke: #A80036; stroke-width: 1.0;"/><path d="M49.8438,144.6719 L50.0156,144.75 C50.2344,144.4375 50.4375,144.3438 50.7344,144.3438 C51.0313,144.3438 51.3125,144.4844 51.4688,144.75 C51.5625,144.9063 51.5781,145.0313 51.5781,145.4688 L51.5781,146.8906 C51.5781,147.3125 51.5469,147.5 51.4375,147.6563 C51.2656,147.875 51,148.0156 50.7344,148.0156 C50.5156,148.0156 50.2813,147.9063 50.1406,147.7656 C50,147.6406 49.9688,147.5156 49.9063,147.1094 C49.8125,146.7031 49.6406,146.4844 49.1563,146.2031 C48.6875,145.9531 48.0781,145.7969 47.5,145.7969 C45.7656,145.7969 44.5156,147.1094 44.5156,148.8906 L44.5156,149.9844 C44.5156,151.6875 45.8125,152.7813 47.8594,152.7813 C48.625,152.7813 49.3125,152.6563 49.7344,152.3906 C49.9219,152.2969 49.9219,152.2969 50.375,151.8125 C50.5625,151.625 50.7656,151.5469 50.9844,151.5469 C51.4531,151.5469 51.8438,151.9375 51.8438,152.3906 C51.8438,152.7813 51.5156,153.2344 50.9375,153.6406 C50.1875,154.1875 49.0313,154.4844 47.8125,154.4844 C44.9219,154.4844 42.8125,152.5938 42.8125,150.0156 L42.8125,148.8906 C42.8125,146.1719 44.8125,144.0938 47.4375,144.0938 C48.3125,144.0938 48.9063,144.2344 49.8438,144.6719 Z "/><text fill="#000000" font-family="sans-serif" font-size="12" lengthAdjust="spacingAndGlyphs" textLength="92" x="61.5" y="153.1543">ThreadContext</text><line style="stroke: #A80036; stroke-width: 1.5;" x1="33.5" x2="155.5" y1="165" y2="165"/><line style="stroke: #A80036; stroke-width: 1.5;" x1="33.5" x2="155.5" y1="173" y2="173"/><path d="M94.5,56.135 C94.5,76.494 94.5,106.1907 94.5,127.908 " fill="none" style="stroke: #A80036; stroke-width: 1.0;"/><polygon fill="#A80036" points="94.5,132.9684,98.5,123.9684,94.5,127.9684,90.5,123.9684,94.5,132.9684" style="stroke: #A80036; stroke-width: 1.0;"/><text fill="#000000" font-family="sans-serif" font-size="13" lengthAdjust="spacingAndGlyphs" textLength="276" x="95.5" y="99.0669">Only when thread context scope is created.</text></g></svg>