<svg xmlns="http://www.w3.org/2000/svg" height="190" preserveAspectRatio="none" style="width:372px;height:190px" width="372"><defs><filter height="300%" id="a" width="300%" x="-1" y="-1"><feGaussianBlur result="blurOut" stdDeviation="2"/><feColorMatrix in="blurOut" result="blurOut2" values="0 0 0 0 0 0 0 0 0 0 0 0 0 0 0 0 0 0 .4 0"/><feOffset dx="4" dy="4" in="blurOut2" result="blurOut3"/><feBlend in="SourceGraphic" in2="blurOut3"/></filter></defs><path fill="#FEFECE" filter="url(#a)" stroke="#a80036" stroke-width="1.5" d="M6 8h177v48H6z"/><circle cx="21" cy="24" fill="#ADD1B2" stroke="#a80036" r="11"/><path d="M23.344 19.672l.172.078c.218-.313.422-.406.718-.406.297 0 .578.14.735.406.093.156.11.281.11.719v1.422c0 .422-.032.609-.142.765a.92.92 0 01-.703.36.895.895 0 01-.593-.25c-.141-.125-.172-.25-.235-.657-.093-.406-.265-.625-.75-.906A3.655 3.655 0 0021 20.797c-1.734 0-2.984 1.312-2.984 3.094v1.093c0 1.703 1.297 2.797 3.343 2.797.766 0 1.453-.125 1.875-.39.188-.094.188-.094.641-.578a.831.831 0 01.61-.266c.468 0 .859.39.859.844 0 .39-.328.843-.907 1.25-.75.547-1.906.843-3.125.843-2.89 0-5-1.89-5-4.468V23.89c0-2.72 2-4.797 4.625-4.797.875 0 1.47.14 2.407.578z"/><text font-family="sans-serif" font-size="12" lengthAdjust="spacingAndGlyphs" textLength="145" x="35" y="28.154">ThreadContextTLSEntry</text><path stroke="#a80036" stroke-width="1.5" d="M7 40h175M7 48h175"/><path fill="#FEFECE" filter="url(#a)" stroke="#a80036" stroke-width="1.5" d="M32.5 133h124v48h-124z"/><circle cx="47.5" cy="149" fill="#ADD1B2" stroke="#a80036" r="11"/><path d="M49.844 144.672l.172.078c.218-.313.422-.406.718-.406.297 0 .578.14.735.406.093.156.11.281.11.719v1.422c0 .422-.032.609-.142.765a.92.92 0 01-.703.36.895.895 0 01-.593-.25c-.141-.125-.172-.25-.235-.657-.093-.406-.265-.625-.75-.906a3.655 3.655 0 00-1.656-.406c-1.734 0-2.984 1.312-2.984 3.094v1.093c0 1.703 1.297 2.797 3.343 2.797.766 0 1.453-.125 1.875-.39.188-.094.188-.094.641-.578a.831.831 0 01.61-.266c.468 0 .859.39.859.844 0 .39-.328.843-.907 1.25-.75.547-1.906.843-3.124.843-2.891 0-5-1.89-5-4.468v-1.125c0-2.72 2-4.797 4.624-4.797.876 0 1.47.14 2.407.578z"/><text font-family="sans-serif" font-size="12" lengthAdjust="spacingAndGlyphs" textLength="92" x="61.5" y="153.154">ThreadContext</text><path stroke="#a80036" stroke-width="1.5" d="M33.5 165h122M33.5 173h122"/><path d="M94.5 56.135v71.773" fill="none" stroke="#a80036"/><path fill="#A80036" stroke="#a80036" d="M94.5 132.968l4-9-4 4-4-4 4 9z"/><text font-family="sans-serif" font-size="13" lengthAdjust="spacingAndGlyphs" textLength="276" x="95.5" y="99.067">Only when thread context scope is created.</text></svg>